<svg
  xmlns="http://www.w3.org/2000/svg"
  width="2048"
  height="2048"
  preserveAspectRatio="xMidYMid meet"
  style="display: block;"
  version="1.1"
  viewBox="390 400 1230 1210"
>
  <!-- Outer circle -->
  <path
    fill="none"
    stroke="#4caf50"
    stroke-width="20"
    d="m1003.4 415.4 2.5-.2c22-1.2 47 .3 68.9 2.2a569 569 0 0 1 331.3 145c123 110.4
       190.2 256 198.8 420.5a593 593 0 0 1-153.4 427.5 582 582 0 0 1-403.1 193.5c-24
       .5-47.4.6-71.2-1.5a583 583 0 0 1-337.9-149.5 595 595 0 0 1-196-412 600 600 0 0 1
       155.7-436.3 576 576 0 0 1 404.4-189.2"
  />

  <!-- Flame -->
  <path
    fill="#4caf50"
    d="M991.2 508.5c3.7 1.1 16 13.2 19.5 16.3a163 163 0 0 1 51.6 81.6c4.8 17 2.3 20.5
       12.7 35.5 8.9 3.9 18.1 6.4 27.4 10.6 33.3 15.3 62.4 40.9 75.8 75.5 5.9 16.1 10.1
       34.5 1.7 50.4-16.3 33-65.1 37.5-82 2.6-11.8-24.4-15.3-45.4-42.6-58.3a73.4 73.4 0
       0 0-96 33.9 81 81 0 0 0-6.7 48c6.8 47.7 50 67 90 82.8 18.7 7.4 38.1 16.6 56.4
       25a275 275 0 0 1 77.8 56 189 189 0 0 1 47.9 95c1.2 6.4 2.3 22.2 4.6 26.6l1.2-.5
       c18.7-53.8 6.5-94.1-7.4-146-14.6-54.6-4.3-102.6 32.3-145.3 7.4-8.7 13-16.9
       22.4-24.5l1.2-1c-28 99.4 17.4 151.4 63.8 232.6 119.9 209.5-26.7 448.2-250 491-61.3
       11.8-127.9 9.4-139.8-65.1-1.4-70.8 54-127 99.3-176.2l62 56.7c2.9-30.6 7.6-61.8
       11.3-92.3l15.4-132.6c-33.2 10-67 19.3-100.5 28.6-39.7 11-80.4 24.6-120.3 34.3
       22.3 17.2 46.8 32.7 68.7 50.3-49.4 57.6-128 162.7-209.3 166.3-87 4-119.2-119.3
       -121.2-188.2a350 350 0 0 1 62.4-206c22.3-32 38.8-48.5 64.9-76.1-14.3 50.9-35.5
       134 23.5 166.1 15 8 32.6 9.7 48.9 4.6a61 61 0 0 0 37.3-33.3c19.7-39.5-.4-80.8
       -17.8-116.6-16.4-33.5-32.4-73.7-32-110.8.4-55 27.7-104 72.3-135.3 27.3-19.1
       59-25.6 74-58.4 16.6-36.4 11.1-67.5-.7-103.8"
  />
</svg>